<svg width="15" height="15" viewBox="0 0 15 15" fill="none" xmlns="http://www.w3.org/2000/svg">
<path d="M10.9167 9.66719H10.2584L10.025 9.44219C11.025 8.27552 11.5417 6.68385 11.2584 4.99219C10.8667 2.67552 8.93336 0.825521 6.60003 0.542188C3.07503 0.108855 0.108366 3.07552 0.5417 6.60052C0.825033 8.93385 2.67503 10.8672 4.9917 11.2589C6.68337 11.5422 8.27503 11.0255 9.4417 10.0255L9.6667 10.2589V10.9172L13.2084 14.4589C13.55 14.8005 14.1084 14.8005 14.45 14.4589C14.7917 14.1172 14.7917 13.5589 14.45 13.2172L10.9167 9.66719ZM5.9167 9.66719C3.8417 9.66719 2.1667 7.99219 2.1667 5.91719C2.1667 3.84219 3.8417 2.16719 5.9167 2.16719C7.9917 2.16719 9.6667 3.84219 9.6667 5.91719C9.6667 7.99219 7.9917 9.66719 5.9167 9.66719Z" fill="#343A40"/>
</svg>
